HIERARCHY
ROOT Hips
{
  OFFSET 40.9192 92.6879 18.85
  CHANNELS 6 Xposition Yposition Zposition Zrotation Xrotation Yrotation
  JOINT LeftUpLeg
  {
    OFFSET 8.64259 1.95398 -2.38835
    CHANNELS 3 Zrotation Xrotation Yrotation
    JOINT LeftLeg
    {
      OFFSET 43.7702 0 0
      CHANNELS 3 Zrotation Xrotation Yrotation
      JOINT LeftFoot
      {
        OFFSET 40.6238 0 0
        CHANNELS 3 Zrotation Xrotation Yrotation
        JOINT LeftToeBase
        {
          OFFSET 12.7242 0 0
          CHANNELS 3 Zrotation Xrotation Yrotation
          End Site
          {
            OFFSET 0 0 0
          }
        }
      }
    }
  }
  JOINT RightUpLeg
  {
    OFFSET -8.2249 1.95398 -2.59336
    CHANNELS 3 Zrotation Xrotation Yrotation
    JOINT RightLeg
    {
      OFFSET 43.5653 0 0
      CHANNELS 3 Zrotation Xrotation Yrotation
      JOINT RightFoot
      {
        OFFSET 40.6238 0 0
        CHANNELS 3 Zrotation Xrotation Yrotation
        JOINT RightToeBase
        {
          OFFSET 12.7242 0 0
          CHANNELS 3 Zrotation Xrotation Yrotation
          End Site
          {
            OFFSET 0 0 0
          }
        }
      }
    }
  }
  JOINT Spine
  {
    OFFSET 0.165834 0.87714 6.61349
    CHANNELS 3 Zrotation Xrotation Yrotation
    JOINT Spine1
    {
      OFFSET 7.38963 1.71661e-005 0
      CHANNELS 3 Zrotation Xrotation Yrotation
      JOINT Spine2
      {
        OFFSET 11.9445 1.14441e-005 0
        CHANNELS 3 Zrotation Xrotation Yrotation
        JOINT Spine3
        {
          OFFSET 14.7254 4.19617e-005 0
          CHANNELS 3 Zrotation Xrotation Yrotation
          JOINT Spine4
          {
            OFFSET 10.9679 0 0
            CHANNELS 3 Zrotation Xrotation Yrotation
            JOINT RightShoulder
            {
              OFFSET 2.46616 -1.6653 3.69651
              CHANNELS 3 Zrotation Xrotation Yrotation
              JOINT RightArm
              {
                OFFSET 13.0012 0 0
                CHANNELS 3 Zrotation Xrotation Yrotation
                JOINT RightForeArm
                {
                  OFFSET 28.7848 1.52588e-005 0
                  CHANNELS 3 Zrotation Xrotation Yrotation
                  JOINT RightHand
                  {
                    OFFSET 26.5688 1.52588e-005 0
                    CHANNELS 3 Zrotation Xrotation Yrotation
                    End Site
                    {
                      OFFSET 0 0 0
                    }
                  }
                }
              }
            }
            JOINT LeftShoulder
            {
              OFFSET 2.38034 -1.29275 -3.7523
              CHANNELS 3 Zrotation Xrotation Yrotation
              JOINT LeftArm
              {
                OFFSET 16.3182 6.10351e-005 0
                CHANNELS 3 Zrotation Xrotation Yrotation
                JOINT LeftForeArm
                {
                  OFFSET 27.0901 0 0
                  CHANNELS 3 Zrotation Xrotation Yrotation
                  JOINT LeftHand
                  {
                    OFFSET 24.5451 1.52588e-005 0
                    CHANNELS 3 Zrotation Xrotation Yrotation
                    End Site
                    {
                      OFFSET 0 0 0
                    }
                  }
                }
              }
            }
            JOINT Neck
            {
              OFFSET 5.0226 -0.0266342 0
              CHANNELS 3 Zrotation Xrotation Yrotation
              JOINT Head
              {
                OFFSET 6.69363 2.86102e-005 0
                CHANNELS 3 Zrotation Xrotation Yrotation
                End Site
                {
                  OFFSET 0 0 0
                }
              }
            }
          }
        }
      }
    }
  }
}
MOTION
Frames:	12
Frame Time:	0.0416667
-289.396 86.0023 -287.185 49.6895 -3.1397 75.3203 -176.73 70.0635 70.2959 -20.3571 -36.946 4.95633 56.4299 -6.47387 -100.697 21.7825 -10.3375 20.1589 105.272 77.8304 132.199 -65.4847 -17.6552 9.58432 80.3573 -8.44873 -5.23856 -118.906 -41.5255 3.94367 8.35052 2.0782 -84.862 22.5587 19.0569 5.82336 11.0242 19.2934 4.9498 -12.3189 16.4169 11.4003 7.69374 16.4169 11.4003 154.726 -33.0595 6.19157 -3.43568 -24.3343 -5.16218 40.6065 -76.3332 0.089697 -43.3442 -2.24887 6.20169 -120.554 3.644 -17.954 -51.04 31.745 -13.3836 157.631 51.8718 -179.959 40.4851 5.56945 9.98642 -55.1796 -36.5559 -67.0117 124.443 23.3361 38.6836 
-289.881 86.0775 -287.569 49.5603 -3.23058 75.0396 -176.438 69.8473 70.0973 -19.0882 -40.0538 4.98902 55.791 -6.00545 -103.866 21.5475 -10.3399 19.2186 106.306 77.8044 131.375 -66.0653 -17.6887 9.53144 80.9732 -8.7485 -5.29499 -117.779 -42.0961 4.54316 8.35106 2.06125 -84.8551 22.5944 19.0578 5.82339 11.0599 19.2944 4.94983 -12.2831 16.4172 11.4003 7.72956 16.4171 11.4003 154.443 -32.9998 5.88566 -3.9769 -25.4814 -5.55609 41.5972 -77.7459 0.0998514 -41.2693 -2.93764 8.23192 -121.578 2.84872 -17.9618 -51.1648 30.789 -11.9371 158.069 51.4551 -179.96 40.5984 5.39393 9.50504 -55.8391 -37.2358 -67.2813 126.163 23.8871 38.2214 
-291.245 86.3154 -288.633 49.2738 -3.50481 74.2501 -175.51 69.3262 69.4003 -16.0678 -47.1666 4.94677 55.0934 -4.60982 -110.832 21.5747 -9.4839 16.1812 109.885 77.6034 128.406 -67.5472 -17.7306 9.36117 82.6273 -9.57263 -5.43744 -114.684 -43.3011 6.16108 8.34535 2.02074 -84.8446 22.6789 19.0518 5.82077 11.1443 19.2886 4.94759 -12.198 16.4105 11.3952 7.81462 16.4105 11.3952 153.647 -32.8692 4.98564 -5.56426 -28.6311 -6.73241 44.4361 -81.3707 0.142676 -34.6876 -4.40926 13.9687 -124.727 0.378385 -18.029 -51.0452 27.7432 -7.75152 159.515 50.1167 -179.961 40.9067 4.83558 8.00549 -58.4634 -39.6152 -68.4212 132.199 25.0092 36.3035 
-293.34 86.7091 -290.227 49.0135 -3.96984 73.0337 -173.831 68.7756 68.0393 -13.0269 -53.6626 4.34553 56.2518 -3.83585 -116.915 23.3036 -6.49713 11.0054 116.631 76.9262 122.627 -69.4769 -17.6564 9.0551 84.9715 -10.7923 -5.61415 -110.171 -44.2839 8.42286 8.32016 1.97135 -84.8605 22.7832 18.9929 5.78006 11.2478 19.2279 4.9097 -12.091 16.3667 11.3384 7.92166 16.3668 11.3384 152.41 -32.7529 3.49261 -8.19554 -33.2849 -8.75454 49.0254 -85.682 0.294061 -23.6763 -5.17148 22.5001 -130.056 -3.84984 -18.3442 -49.2905 22.3327 -1.36319 162.281 47.9333 -179.962 41.3453 3.78471 5.27056 -66.712 -45.2307 -72.6396 145.643 23.6127 31.3786 
-296.012 87.1785 -292.197 48.9776 -4.65142 71.4702 -171.269 68.4565 65.9014 -11.3031 -59.3926 2.96185 59.4896 -3.79689 -121.862 27.3456 -1.74463 4.83579 126.045 75.3684 114.455 -71.5027 -17.3378 8.61224 87.6588 -12.2795 -5.77755 -104.798 -44.503 10.906 8.25871 1.92941 -84.9344 22.8805 18.8316 5.64629 11.3431 19.0609 4.78379 -11.9871 16.2529 11.1607 8.02553 16.2529 11.1607 150.766 -32.7422 1.3434 -11.958 -38.907 -11.7959 55.8525 -88.9542 1.26587 -11.164 -4.08735 32.2245 -137.516 -9.72601 -19.2836 -43.9344 14.875 6.41943 166.525 45.3951 -179.972 41.7149 2.10629 1.05197 -96.6266 -53.8798 -92.7266 165.268 8.02819 26.5833 
-299.118 87.5955 -294.411 49.3537 -5.60356 69.6402 -167.614 68.5353 62.832 -12.0587 -63.903 0.593115 64.0008 -4.82733 -125.336 32.5894 3.03264 -0.614826 136.295 72.531 105.597 -73.4109 -16.6681 8.0465 90.3427 -13.8992 -5.8986 -98.9433 -43.7811 13.2675 8.13883 1.91049 -85.0986 22.9423 18.5072 5.37554 11.4007 18.725 4.52886 -11.9123 16.0246 10.8018 8.10037 16.0246 10.8018 148.677 -32.9273 -1.62268 -17.0529 -44.9543 -16.1631 -120.861 -89.396 177.701 -1.10692 -1.61026 41.9085 -146.949 -16.7752 -21.3591 -33.4813 7.04321 14.7145 171.611 43.5455 -179.983 41.5777 -0.198598 -4.63834 -7.42739 -24.2319 -15.5651 -80.766 34.4162 -67.5923 
-301.911 87.887 -296.451 45.6669 -4.8165 66.8843 -169.667 75.0272 70.107 -15.8735 -67.25 -2.92648 68.9052 -7.15374 -127.502 37.3977 6.68129 -4.36028 154.239 73.5822 84.7403 -74.4061 -15.594 7.81197 92.7114 -15.4353 -5.94892 -92.78 -42.0636 15.2485 7.92356 1.42817 -85.5192 23.7386 18.0218 5.60175 12.1859 18.2505 4.7787 -11.0395 15.498 10.8574 8.97313 15.498 10.8574 146.003 -33.4031 -5.72239 -23.7647 -50.8848 -22.2907 -112.176 -88.3116 179.136 4.89003 1.16985 51.1601 -157.992 -24.0215 -25.0335 -18.6203 1.70171 22.1911 175.807 44.1871 -179.991 40.4027 -2.75651 -11.1721 -10.9165 -28.8756 -14.0825 -99.9844 27.186 -47.5942 
-314.142 87.0468 -303.148 118.382 -22.9272 90.668 -175.596 -0.572189 65.6542 -19.1755 -70.935 -4.51256 69.6609 -3.93897 -127.898 40.0366 8.38684 -8.04986 159.584 -2.51898 85.5166 -84.8083 -13.4974 1.02715 92.8672 -17.3708 -6.35723 -85.833 -39.7244 17.1202 8.05353 8.38954 -89.9954 12.3385 15.8505 -4.29198 0.763942 15.6447 -5.00101 -22.6313 16.3886 0.802403 -2.6187 16.3886 0.802401 142.751 -34.2689 -11.0591 -31.9751 -56.289 -30.0773 -104.646 -85.237 179.679 7.39417 3.56804 59.7629 -169.882 -30.1163 -30.3966 -2.7787 0.689807 27.4809 177.532 49.0395 -179.994 38.0648 -4.84932 -17.2646 -11.768 -29.364 -10.1609 -103.51 17.9362 -38.9546 
-319.031 86.9068 -306.551 134.003 -23.6895 97.3453 -172.889 -0.297876 78.593 -23.2215 -73.86 -8.70659 71.6796 -3.70852 -128.387 42.1293 9.63874 -10.0235 160.58 -7.99349 68.0893 -87.5502 -11.3924 -0.672063 93.1554 -18.2599 -6.42096 -78.6363 -35.9712 17.9538 6.78699 9.44286 -92.4018 8.28546 12.4904 -5.49067 -3.33866 12.2369 -6.04089 -26.3532 13.5535 -1.42053 -6.3405 13.5535 -1.42053 132.77 -35.1487 -27.053 -46.449 -57.8373 -47.9987 -98.58 -55.2704 179.951 7.93286 5.58805 67.2066 -176.029 -33.6443 -32.9339 2.35402 6.25598 22.8455 172.969 74.3416 -179.961 37.5619 -6.56971 -22.0813 -3.22027 -25.347 4.55818 -107.05 10.5583 -28.0344 
-321.49 86.7311 -308.698 130.301 -26.6147 95.9048 -171.764 5.53275 78.3278 -29.442 -76.1521 -14.2752 73.498 -4.76036 -128.828 43.458 10.3854 -11.2452 160.765 -10.2001 68.8663 -87.4543 -9.20216 -0.821129 91.6998 -18.0072 -6.43821 -70.8685 -30.8844 17.6205 5.83473 9.33454 -91.8786 8.41484 10.8162 -4.37786 -3.21962 10.6132 -4.85372 -26.1162 11.6257 -0.88399 -6.10355 11.6257 -0.883988 125.914 -36.4753 -39.1946 -54.1659 -59.992 -57.3904 -97.7715 11.9244 179.97 6.93511 9.58883 73.2677 -179.297 -35.1666 -34.5257 4.10254 11.5637 24.2588 -10.0899 83.7387 -0.14117 35.6251 -7.80334 -26.5254 -0.57871 -22.371 9.32158 -105.262 3.56175 -21.3926 
-323.534 86.3347 -310.477 125.572 -29.3668 93.6842 -170.707 12.2148 77.8925 -36.8486 -78.1499 -20.532 74.3957 -5.76039 -129.095 44.0826 10.6848 -12.2095 161.12 -11.4447 69.7078 -86.6867 -7.00473 -0.917859 87.566 -16.4859 -6.46018 -62.1346 -24.763 16.0766 4.33967 9.29419 -91.2146 8.38919 8.12532 -2.89607 -3.26057 7.99007 -3.25267 -25.9971 8.61727 -0.30334 -5.98449 8.61729 -0.303342 115.53 -37.9394 -58.0031 -57.9097 -59.8561 -64.4155 -101.433 35.8554 179.963 5.6453 7.50999 78.6639 -175.988 -36.6534 -31.0773 -1.28833 18.0877 23.6112 -14.7384 53.668 -0.0383407 33.3519 -8.98319 -31.4946 5.38935 -16.1493 14.3987 -102.125 -2.32405 -13.0866 
-325.031 85.7926 -311.766 119.855 -31.8406 90.5546 -169.772 19.1833 77.1697 -45.1547 -80.0122 -27.7519 74.483 -6.6 -129.258 44.1947 10.6774 -12.9858 161.76 -11.4659 70.5246 -85.2938 -5.06218 -1.00386 80.7166 -13.6976 -6.25556 -52.203 -18.3483 13.5141 2.70952 9.23454 -90.4581 8.43667 5.20482 -1.2271 -3.22462 5.14578 -1.45555 -25.844 5.33232 0.398412 -5.83134 5.33229 0.398408 104.873 -37.561 -77.0584 -57.557 -57.0787 -67.8213 -104.946 37.1431 179.962 4.60823 8.13313 82.2752 -167.839 -39.3588 -22.6534 -7.93547 21.9278 20.7269 -17.4044 26.455 -0.0284656 29.8895 -9.41564 -35.8781 13.2392 -8.88836 16.4088 -97.2883 -6.79165 -4.32732 
